<svg width="22" height="17" viewBox="0 0 22 17" fill="none" xmlns="http://www.w3.org/2000/svg">
<path d="M15.8202 4.21705L22 6.92802V14.289L15.8202 17L9.6297 14.3079V11.2863L6.19052 12.7829L0 10.0908L0.0107474 2.71096L6.19052 0L12.3703 2.71096L12.381 5.73256L15.8202 4.21705ZM19.7753 7.29513L15.8202 5.57254L11.8652 7.29513L15.8202 9.02713L19.7753 7.29513ZM10.1456 3.07807L6.19052 1.35548L2.23547 3.07807L6.19052 4.81008L10.1456 3.07807ZM1.38642 4.05703L1.37567 9.33776L5.50269 11.1357V5.85493L1.38642 4.05703ZM6.87836 11.1357L9.64045 9.9402V6.92802L11.0054 6.33499L10.9946 4.05703L6.87836 5.85493V11.1357ZM11.0161 8.27409L11.0054 13.5548L15.1324 15.3527V10.072L11.0161 8.27409ZM16.5081 15.3527L20.6243 13.5454V8.27409L16.5081 10.072V15.3527Z" fill="#00A86B"/>
</svg>
