<svg width="20" height="19" viewBox="0 0 20 19" fill="none" xmlns="http://www.w3.org/2000/svg">
<path d="M13.8225 4.11654C13.8225 4.53646 13.6486 4.93919 13.3389 5.23612C13.0293 5.53305 12.6094 5.69987 12.1715 5.69987C11.7336 5.69987 11.3136 5.53305 11.004 5.23612C10.6944 4.93919 10.5204 4.53646 10.5204 4.11654C10.5204 3.69661 10.6944 3.29388 11.004 2.99695C11.3136 2.70002 11.7336 2.5332 12.1715 2.5332C12.6094 2.5332 13.0293 2.70002 13.3389 2.99695C13.6486 3.29388 13.8225 3.69661 13.8225 4.11654V4.11654ZM10.4333 6.48837H14.372C15.1843 6.48837 15.8427 7.1198 15.8434 7.8988V11.1643C15.8434 11.505 15.57 11.7989 15.2147 11.8147C15.1254 11.8188 15.0361 11.8055 14.9524 11.7756C14.8686 11.7456 14.792 11.6997 14.7273 11.6405C14.6626 11.5814 14.6111 11.5102 14.5759 11.4314C14.5407 11.3526 14.5225 11.2677 14.5226 11.182L14.5351 8.11034C14.5351 8.02652 14.5004 7.94613 14.4386 7.88687C14.3768 7.8276 14.293 7.7943 14.2056 7.7943C14.1182 7.7943 14.0343 7.8276 13.9725 7.88687C13.9107 7.94613 13.876 8.02652 13.876 8.11034L13.8641 16.027C13.8642 16.1129 13.8461 16.1978 13.8109 16.2768C13.7758 16.3557 13.7242 16.4269 13.6594 16.4862C13.5946 16.5454 13.5179 16.5914 13.434 16.6213C13.3501 16.6513 13.2608 16.6645 13.1714 16.6603C12.816 16.6439 12.5433 16.3506 12.5433 16.0093V11.607C12.5433 11.4252 12.3769 11.2903 12.1906 11.2903C12.1057 11.2976 12.0269 11.3354 11.9698 11.3962C11.9128 11.4569 11.8817 11.536 11.8829 11.6177V16.027C11.883 16.1129 11.8649 16.1978 11.8297 16.2768C11.7945 16.3557 11.7429 16.4269 11.6781 16.4862C11.6134 16.5454 11.5367 16.5914 11.4528 16.6213C11.3689 16.6513 11.2795 16.6645 11.1901 16.6603C10.8348 16.6439 10.562 16.3506 10.562 16.0093V7.92414C10.562 7.8494 10.496 7.78924 10.4168 7.7943C10.3897 7.79681 10.364 7.80675 10.3426 7.82292C10.3213 7.8391 10.3053 7.86083 10.2966 7.8855L9.63944 9.5879C9.55513 9.80455 9.40396 9.9914 9.20609 10.1236C9.00823 10.2557 8.77305 10.3269 8.53192 10.3276H7.24609C7.15669 10.3276 7.06821 10.3103 6.98602 10.2765C6.90384 10.2428 6.82965 10.1934 6.76796 10.1313C6.70628 10.0692 6.65837 9.99581 6.62715 9.91547C6.59593 9.83513 6.58204 9.74954 6.58634 9.6639C6.60285 9.32317 6.90862 9.06097 7.26458 9.06097H8.43484L9.08205 7.3896C9.18448 7.12511 9.36884 6.897 9.61037 6.7359C9.8519 6.5748 10.1391 6.48843 10.4333 6.48837V6.48837ZM6.00187 10.7577L5.3639 11.3688C5.3295 11.4019 5.31018 11.4466 5.31018 11.4933C5.31018 11.54 5.3295 11.5847 5.3639 11.6177L6.3017 12.5158C6.3361 12.5486 6.38263 12.567 6.43114 12.567C6.47964 12.567 6.52618 12.5486 6.56058 12.5158L7.19788 11.9046C7.23228 11.8716 7.25161 11.8269 7.25161 11.7802C7.25161 11.7335 7.23228 11.6888 7.19788 11.6557L6.26141 10.7577C6.22698 10.7247 6.18031 10.7061 6.13164 10.7061C6.08297 10.7061 6.03629 10.7247 6.00187 10.7577V10.7577Z" fill="#00A86B"/>
<path d="M7.93162 15.8332V11.7166C7.93162 11.6326 7.96641 11.552 8.02833 11.4927C8.09026 11.4333 8.17425 11.3999 8.26182 11.3999C8.3494 11.3999 8.43339 11.4333 8.49532 11.4927C8.55724 11.552 8.59203 11.6326 8.59203 11.7166V15.9916C8.59203 16.1175 8.53985 16.2384 8.44696 16.3274C8.35407 16.4165 8.22809 16.4666 8.09672 16.4666H4.46443C4.33306 16.4666 4.20708 16.4165 4.11419 16.3274C4.0213 16.2384 3.96912 16.1175 3.96912 15.9916V11.7166C3.96912 11.6326 4.00391 11.552 4.06583 11.4927C4.12776 11.4333 4.21175 11.3999 4.29932 11.3999C4.3869 11.3999 4.47089 11.4333 4.53282 11.4927C4.59474 11.552 4.62953 11.6326 4.62953 11.7166V15.8332H7.93162Z" fill="#00A86B"/>
<path d="M3.30208 0C2.86845 0 2.43906 0.0819083 2.03843 0.241048C1.6378 0.400188 1.27378 0.633443 0.967158 0.927495C0.347897 1.52136 0 2.32681 0 3.16667V15.8333C0 16.6732 0.347897 17.4786 0.967158 18.0725C1.27378 18.3666 1.6378 18.5998 2.03843 18.759C2.43906 18.9181 2.86845 19 3.30208 19H16.5104C17.3862 19 18.2261 18.6664 18.8453 18.0725C19.4646 17.4786 19.8125 16.6732 19.8125 15.8333V3.16667C19.8125 2.75081 19.7271 2.33903 19.5611 1.95484C19.3952 1.57064 19.152 1.22155 18.8453 0.927495C18.5387 0.633443 18.1747 0.400188 17.7741 0.241048C17.3734 0.0819083 16.9441 0 16.5104 0H3.30208ZM1.32083 3.16667C1.32083 2.66276 1.52957 2.17948 1.90113 1.82316C2.27268 1.46684 2.77662 1.26667 3.30208 1.26667H16.5104C17.0359 1.26667 17.5398 1.46684 17.9114 1.82316C18.2829 2.17948 18.4917 2.66276 18.4917 3.16667V15.8333C18.4917 16.3372 18.2829 16.8205 17.9114 17.1768C17.5398 17.5332 17.0359 17.7333 16.5104 17.7333H3.30208C2.77662 17.7333 2.27268 17.5332 1.90113 17.1768C1.52957 16.8205 1.32083 16.3372 1.32083 15.8333V3.16667Z" fill="#00A86B"/>
</svg>
