<svg width="25" height="24" viewBox="0 0 25 24" fill="none" xmlns="http://www.w3.org/2000/svg">
<path d="M23.4375 11.25H13.2812V1.5H11.7188V11.25H1.5625V12.75H11.7188V22.5H13.2812V12.75H23.4375V11.25Z" fill="#00A86B"/>
<path d="M19.9891 15L21.0938 16.0605L18.2922 18.75L21.0938 21.4395L19.9891 22.5L16.0828 18.75L19.9891 15ZM8.59375 22.5H2.34375C2.21063 22.4999 2.07974 22.4672 1.9635 22.4049C1.84725 22.3427 1.7495 22.2529 1.67954 22.1442C1.60957 22.0355 1.5697 21.9114 1.56371 21.7837C1.55772 21.6561 1.58581 21.5291 1.64531 21.4148L4.77031 15.4148C4.8424 15.2985 4.94471 15.2022 5.06721 15.1354C5.18972 15.0685 5.32822 15.0334 5.46914 15.0334C5.61006 15.0334 5.74856 15.0685 5.87107 15.1354C5.99358 15.2022 6.09589 15.2985 6.16797 15.4148L9.29297 21.4148C9.3525 21.5291 9.38059 21.6562 9.37457 21.7839C9.36854 21.9117 9.3286 22.0358 9.25854 22.1445C9.18848 22.2533 9.09063 22.343 8.97428 22.4052C8.85792 22.4674 8.72694 22.5001 8.59375 22.5ZM3.60781 21H7.32969L5.46875 17.427L3.60781 21ZM21.875 9H17.1875C16.7732 8.9996 16.376 8.84144 16.0831 8.56022C15.7902 8.279 15.6254 7.8977 15.625 7.5V3C15.6254 2.6023 15.7902 2.221 16.0831 1.93978C16.376 1.65856 16.7732 1.5004 17.1875 1.5H21.875C22.2893 1.5004 22.6865 1.65856 22.9794 1.93978C23.2723 2.221 23.4371 2.6023 23.4375 3V7.5C23.4371 7.8977 23.2723 8.279 22.9794 8.56022C22.6865 8.84144 22.2893 8.9996 21.875 9V9ZM17.1875 3V7.5H21.8758L21.875 3H17.1875ZM5.46875 9C4.69617 9 3.94094 8.78007 3.29856 8.36801C2.65618 7.95596 2.1555 7.37029 1.85985 6.68506C1.56419 5.99984 1.48684 5.24584 1.63756 4.51841C1.78828 3.79098 2.16032 3.1228 2.70662 2.59835C3.25291 2.0739 3.94894 1.71675 4.70668 1.57206C5.46442 1.42736 6.24983 1.50162 6.96361 1.78545C7.67738 2.06928 8.28746 2.54993 8.71668 3.16661C9.1459 3.7833 9.375 4.50832 9.375 5.25C9.37376 6.2442 8.96181 7.19733 8.22952 7.90034C7.49722 8.60334 6.50437 8.99881 5.46875 9ZM5.46875 3C5.0052 3 4.55206 3.13196 4.16663 3.3792C3.78121 3.62643 3.4808 3.97783 3.30341 4.38896C3.12602 4.8001 3.0796 5.2525 3.17004 5.68895C3.26047 6.12541 3.48369 6.52632 3.81147 6.84099C4.13925 7.15566 4.55687 7.36995 5.01151 7.45677C5.46615 7.54359 5.9374 7.49903 6.36567 7.32873C6.79393 7.15843 7.15997 6.87005 7.41751 6.50003C7.67504 6.13002 7.8125 5.69501 7.8125 5.25C7.81188 4.65345 7.56475 4.0815 7.12535 3.65967C6.68594 3.23784 6.09016 3.0006 5.46875 3V3Z" fill="#00A86B"/>
</svg>
