<svg width="18" height="18" viewBox="0 0 18 18" fill="none" xmlns="http://www.w3.org/2000/svg">
<g clip-path="url(#clip0_139_2925)">
<path d="M15.6337 12.9714C14.8777 11.9627 13.806 11.2262 12.567 10.9059L12.5287 10.8977L11.6445 12.3902C11.643 12.8042 11.3085 13.1387 10.8945 13.1402C10.482 13.1402 10.1445 12.8027 9.75073 11.8097C9.75073 11.8029 9.75073 11.7939 9.75073 11.7857C9.75073 11.2674 9.33073 10.8482 8.81323 10.8482C8.29573 10.8482 7.87573 11.2682 7.87573 11.7857V11.8104V11.8089C7.45573 12.8027 7.11523 13.1394 6.70348 13.1394C6.28948 13.1379 5.95498 12.8034 5.95348 12.3894L5.09698 10.8939C3.82048 11.2239 2.74948 11.9597 2.00248 12.9534L1.99198 12.9677C1.70098 13.4394 1.52098 14.0072 1.50073 14.6154V14.6207C1.50448 14.7332 1.50073 14.8644 1.50073 14.9957V16.4957C1.50073 17.3244 2.17198 17.9957 3.00073 17.9957H14.6257C15.4545 17.9957 16.1257 17.3244 16.1257 16.4957V14.9957C16.1257 14.8652 16.122 14.7332 16.1257 14.6207C16.1047 14.0079 15.9247 13.4409 15.6262 12.9549L15.6345 12.9699L15.6337 12.9714ZM4.87498 3.9677C4.87498 6.1577 6.23998 9.3752 8.81248 9.3752C11.34 9.3752 12.75 6.1577 12.75 3.9677C12.75 3.95345 12.75 3.9362 12.75 3.91895C12.75 1.74395 10.9867 -0.0185547 8.81248 -0.0185547C6.63823 -0.0185547 4.87498 1.7447 4.87498 3.91895V3.96995V3.9677Z" fill="#00A86B"/>
</g>
<defs>
<clipPath id="clip0_139_2925">
<rect width="18" height="18" fill="white"/>
</clipPath>
</defs>
</svg>
