<svg width="35" height="30" viewBox="0 0 35 30" fill="none" xmlns="http://www.w3.org/2000/svg">
<path d="M8.69359 14.1668C9.06473 14.1668 9.41266 14.2913 9.67124 14.5021L9.71428 14.5404C9.84376 14.6557 9.94299 14.7894 10.0094 14.9323C10.0758 15.0749 10.1089 15.2254 10.1089 15.3756C10.1089 15.5259 10.0758 15.6763 10.0094 15.819C9.94299 15.9618 9.84376 16.0955 9.71428 16.2108L9.71397 16.2111L6.21222 19.3339L5.23311 20.2071H6.54501H24.9833C25.3764 20.2071 25.7435 20.3468 26.0059 20.5807C26.2665 20.8129 26.4 21.1147 26.4 21.4154C26.4 21.7161 26.2665 22.0179 26.0059 22.2501C25.7435 22.4841 25.3764 22.6238 24.9833 22.6238H6.54501H5.23257L6.21232 23.497L9.71599 26.6199L9.71612 26.62C9.84552 26.7352 9.94469 26.8689 10.0111 27.0117C10.0774 27.1543 10.1106 27.3046 10.1106 27.4548C10.1107 27.605 10.0777 27.7554 10.0115 27.898C9.94517 28.0408 9.84611 28.1746 9.71681 28.2899C9.58741 28.4053 9.43075 28.4995 9.25452 28.5646C9.07827 28.6298 8.88769 28.6639 8.69411 28.6639C8.50053 28.664 8.30992 28.63 8.13361 28.565C7.95738 28.5 7.80067 28.4059 7.67119 28.2906C7.67115 28.2906 7.67111 28.2906 7.67106 28.2905L0.893915 22.25C0.633461 22.0178 0.5 21.7161 0.5 21.4154C0.5 21.1148 0.633461 20.8131 0.893915 20.5808L7.67114 14.5403C7.67115 14.5403 7.67117 14.5402 7.67119 14.5402C7.93361 14.3064 8.30059 14.1668 8.69359 14.1668ZM24.5254 1.70639C24.5254 1.42252 24.6444 1.13767 24.8769 0.91129L24.9193 0.873577C25.16 0.659018 25.4899 0.522741 25.8495 0.502586C26.204 0.482718 26.5488 0.577951 26.8204 0.761721L26.9755 0.883742L33.7414 6.91423C33.9808 7.1276 34.1134 7.40039 34.1329 7.67687C34.152 7.94838 34.0624 8.22502 33.8657 8.45651L33.7299 8.59359L26.9647 14.6217C26.7129 14.8453 26.3648 14.983 25.9887 14.9932C25.6125 15.0035 25.2539 14.885 24.9851 14.6737C24.7177 14.4636 24.5637 14.1824 24.5329 13.8944C24.5027 13.6118 24.5907 13.3214 24.7953 13.0797L24.9309 12.9428L28.4211 9.83026L29.4002 8.9571H28.0883H9.6505C9.27293 8.95672 8.91856 8.8274 8.6583 8.6084C8.39958 8.3907 8.25673 8.10524 8.23768 7.81602C8.21867 7.52743 8.32265 7.23331 8.54683 6.99457C8.77033 6.75657 9.09694 6.59287 9.46632 6.55094L9.66333 6.54043H28.0903H29.4016L28.4231 5.66735L24.9195 2.5411L24.9193 2.54097C24.6589 2.30876 24.5254 2.00702 24.5254 1.70639Z" fill="white" stroke="white"/>
</svg>
