<svg width="16" height="15" viewBox="0 0 16 15" fill="none" xmlns="http://www.w3.org/2000/svg">
<path d="M10 0C9.73478 0 9.48043 0.105357 9.29289 0.292893C9.10536 0.48043 9 0.734784 9 1V3C9 3.26522 9.10536 3.51957 9.29289 3.70711C9.48043 3.89464 9.73478 4 10 4H13C13.2652 4 13.5196 3.89464 13.7071 3.70711C13.8946 3.51957 14 3.26522 14 3V1C14 0.734784 13.8946 0.48043 13.7071 0.292893C13.5196 0.105357 13.2652 0 13 0H10ZM12 5.5C12 5.36739 11.9473 5.24021 11.8536 5.14645C11.7598 5.05268 11.6326 5 11.5 5C11.3674 5 11.2402 5.05268 11.1464 5.14645C11.0527 5.24021 11 5.36739 11 5.5V11.293L9.854 10.146C9.76011 10.0521 9.63278 9.99937 9.5 9.99937C9.36722 9.99937 9.23989 10.0521 9.146 10.146C9.05211 10.2399 8.99937 10.3672 8.99937 10.5C8.99937 10.6328 9.05211 10.7601 9.146 10.854L11.146 12.854C11.1924 12.9006 11.2476 12.9375 11.3084 12.9627C11.3691 12.9879 11.4342 13.0009 11.5 13.0009C11.5658 13.0009 11.6309 12.9879 11.6916 12.9627C11.7524 12.9375 11.8076 12.9006 11.854 12.854L13.854 10.854C13.9479 10.7601 14.0006 10.6328 14.0006 10.5C14.0006 10.3672 13.9479 10.2399 13.854 10.146C13.7601 10.0521 13.6328 9.99937 13.5 9.99937C13.3672 9.99937 13.2399 10.0521 13.146 10.146L12 11.293V5.5ZM3 9C2.73478 9 2.48043 9.10536 2.29289 9.29289C2.10536 9.48043 2 9.73478 2 10V12C2 12.2652 2.10536 12.5196 2.29289 12.7071C2.48043 12.8946 2.73478 13 3 13H6C6.26522 13 6.51957 12.8946 6.70711 12.7071C6.89464 12.5196 7 12.2652 7 12V10C7 9.73478 6.89464 9.48043 6.70711 9.29289C6.51957 9.10536 6.26522 9 6 9H3ZM1 11.5C1 11.3674 0.947321 11.2402 0.853553 11.1464C0.759785 11.0527 0.632608 11 0.5 11C0.367392 11 0.240215 11.0527 0.146447 11.1464C0.0526785 11.2402 0 11.3674 0 11.5V13C0 13.5304 0.210714 14.0391 0.585786 14.4142C0.960859 14.7893 1.46957 15 2 15H14C14.5304 15 15.0391 14.7893 15.4142 14.4142C15.7893 14.0391 16 13.5304 16 13V11.5C16 11.3674 15.9473 11.2402 15.8536 11.1464C15.7598 11.0527 15.6326 11 15.5 11C15.3674 11 15.2402 11.0527 15.1464 11.1464C15.0527 11.2402 15 11.3674 15 11.5V13C15 13.2652 14.8946 13.5196 14.7071 13.7071C14.5196 13.8946 14.2652 14 14 14H2C1.73478 14 1.48043 13.8946 1.29289 13.7071C1.10536 13.5196 1 13.2652 1 13V11.5Z" fill="#00A86B"/>
</svg>
